<svg xmlns="http://www.w3.org/2000/svg" viewBox="0 0 18.64 19.71"><defs><style>.cls-1{fill:#1f5695;}</style></defs><title>Action-Notification</title><g id="Layer_2" data-name="Layer 2"><g id="Layer_1-2" data-name="Layer 1"><path class="cls-1" d="M8.37,3.21a4.68,4.68,0,0,0,0,9.35h.2l-.26-1a3.69,3.69,0,1,1,3.75-3.69,3.58,3.58,0,0,1-.24,1.31l.87.47A4.59,4.59,0,0,0,13,7.88,4.68,4.68,0,0,0,8.37,3.21Z"/><path class="cls-1" d="M8.42,0A8.35,8.35,0,0,0,0,8.25a8.36,8.36,0,0,0,8.42,8.26,8.77,8.77,0,0,0,1.15-.08l-.33-1.2a7.38,7.38,0,0,1-.82,0,7.09,7.09,0,0,1-7.16-7,7.1,7.1,0,0,1,7.16-7,7.1,7.1,0,0,1,7.16,7,6.89,6.89,0,0,1-.64,2.91l1.1.6a8.14,8.14,0,0,0,.8-3.51A8.35,8.35,0,0,0,8.42,0Z"/><polygon class="cls-1" points="8.93 9.06 11.8 19.39 13.64 16.35 16.32 19.71 17.91 18.34 15.09 15.23 18.64 14.15 8.93 9.06"/></g></g></svg>