<svg xmlns="http://www.w3.org/2000/svg" viewBox="0 0 30 30"><defs><style>.cls-1{fill:#4d565c;}.cls-2{fill:none;stroke:#4d565c;stroke-width:1.5px;}</style></defs><title>Help</title><g id="Layer_2" data-name="Layer 2"><g id="Layer_1-2" data-name="Layer 1"><path class="cls-1" d="M15.37,23.25a1.64,1.64,0,1,0-1.56-1.64A1.57,1.57,0,0,0,15.37,23.25ZM14.3,18.49h2.12c-.3-2.71,3-3.66,3-6.33,0-2.28-1.58-3.48-3.76-3.48a5,5,0,0,0-3.8,1.83l1.34,1.23a2.9,2.9,0,0,1,2.17-1.09,1.57,1.57,0,0,1,1.7,1.68C17.05,14.22,13.86,15.42,14.3,18.49Z"/><path class="cls-2" d="M15,.75a14.13,14.13,0,0,1,5.45,1.08,14.23,14.23,0,0,1,7.72,7.72,14.29,14.29,0,0,1,0,10.9,14.23,14.23,0,0,1-7.72,7.72,14.29,14.29,0,0,1-10.9,0,14.23,14.23,0,0,1-7.72-7.72,14.29,14.29,0,0,1,0-10.9A14.23,14.23,0,0,1,9.55,1.83,14.13,14.13,0,0,1,15,.75Z"/></g></g></svg>