<svg xmlns="http://www.w3.org/2000/svg" width="20" height="20" viewBox="0 0 27.59 29.85"><defs><style>.cls-1{fill:#053367;}.cls-2,.cls-3{fill:none;}.cls-2{stroke:#053367;stroke-width:0.5px;}</style></defs><title>Inbox-action</title><g id="Layer_2" data-name="Layer 2"><g id="Layer_1-2" data-name="Layer 1"><path class="cls-1" d="M13.1,6.74a5.36,5.36,0,0,0-.56,10.7h.23l-.24-1.13a4.24,4.24,0,1,1,4.17-2.53l1,.59a5,5,0,0,0,.51-2A5.36,5.36,0,0,0,13.1,6.74Z"/><path class="cls-2" d="M13.1,6.74a5.36,5.36,0,0,0-.56,10.7h.23l-.24-1.13a4.24,4.24,0,1,1,4.17-2.53l1,.59a5,5,0,0,0,.51-2A5.36,5.36,0,0,0,13.1,6.74Z"/><path class="cls-1" d="M12.89.25A12.53,12.53,0,0,0,.25,12.64,12.53,12.53,0,0,0,12.89,25a12.36,12.36,0,0,0,1.73-.12c-.17-.6-.33-1.2-.49-1.8-.41,0-.82.07-1.24.07A10.66,10.66,0,0,1,2.14,12.64,10.66,10.66,0,0,1,12.89,2.1,10.67,10.67,0,0,1,23.65,12.64a10.32,10.32,0,0,1-1,4.37l1.65.89a12.05,12.05,0,0,0,1.2-5.26A12.53,12.53,0,0,0,12.89.25Z"/><path class="cls-2" d="M12.89.25A12.53,12.53,0,0,0,.25,12.64,12.53,12.53,0,0,0,12.89,25a12.36,12.36,0,0,0,1.73-.12c-.17-.6-.33-1.2-.49-1.8-.41,0-.82.07-1.24.07A10.66,10.66,0,0,1,2.14,12.64,10.66,10.66,0,0,1,12.89,2.1,10.67,10.67,0,0,1,23.65,12.64a10.32,10.32,0,0,1-1,4.37l1.65.89a12.05,12.05,0,0,0,1.2-5.26A12.53,12.53,0,0,0,12.89.25Z"/><polygon class="cls-1" points="13.65 14.25 17.78 29.38 20.41 24.92 24.25 29.85 26.54 27.85 22.5 23.28 27.59 21.71 13.65 14.25"/><rect class="cls-3" width="24px" height="24px"/></g></g></svg>