<svg xmlns="http://www.w3.org/2000/svg" width="20" height="20"  viewBox="0 0 29.44 26.45"><defs><style>.cls-1{fill:#053367;}.cls-2,.cls-3{fill:none;}.cls-2{stroke:#053367;}</style></defs><title>Inbox-reminder</title><g id="Layer_2" data-name="Layer 2"><g id="Layer_1-2" data-name="Layer 1"><polygon class="cls-1" points="29.44 7.62 14.28 7.62 9.51 7.64 3.65 7.68 0.02 7.7 0.02 7.62 0 1.6 5.94 1.56 5.98 6.04 10.63 6 10.61 1.54 12.44 1.52 16.44 1.5 18.81 1.48 18.83 5.96 23.5 5.92 23.46 1.46 29.4 1.52 29.44 7.62"/><rect class="cls-1" x="19.73" y="0.07" width="3.16" height="6.77"/><rect class="cls-1" x="6.61" width="3.16" height="6.77"/><rect class="cls-1" x="15.71" y="11.18" width="3.29" height="3.29"/><rect class="cls-1" x="20.71" y="11.18" width="3.29" height="3.29"/><rect class="cls-1" x="15.71" y="15.6" width="3.29" height="3.29"/><rect class="cls-1" x="20.71" y="15.6" width="3.29" height="3.29"/><rect class="cls-1" x="5.7" y="20.02" width="3.29" height="3.29"/><rect class="cls-1" x="10.7" y="20.02" width="3.29" height="3.29"/><rect class="cls-1" x="15.71" y="20.02" width="3.29" height="3.29"/><rect class="cls-1" x="20.71" y="20.02" width="3.29" height="3.29"/><rect class="cls-1" x="5.7" y="11.18" width="7.64" height="7.64"/><rect class="cls-2" x="0.52" y="6.55" width="28.42" height="19.41"/><rect class="cls-3" width="29.44" height="26.45"/></g></g></svg>