<svg xmlns="http://www.w3.org/2000/svg" xmlns:xlink="http://www.w3.org/1999/xlink" viewBox="0 0 258 58"><defs><style>.cls-1{fill:none;}.cls-2{clip-path:url(#clip-path);}.cls-3{fill:#fff;}</style><clipPath id="clip-path"><rect class="cls-1" width="258" height="58"/></clipPath></defs><title>Logo</title><g id="Layer_2" data-name="Layer 2"><g id="Layer_1-2" data-name="Layer 1"><g class="cls-2"><path class="cls-3" d="M206.94,27.22V21c0-1.2,0-2.4,0-3.59a1.65,1.65,0,0,0-1.66-1.77,1.69,1.69,0,0,0-1.79,1.66,4.75,4.75,0,0,0,0,.65q0,9.13,0,18.28c0,.42-.05,1,.19,1.25.41.47,1,1,1.56,1s1.13-.59,1.56-1c.22-.23.17-.75.17-1.15C207,33.31,206.94,30.26,206.94,27.22ZM203.86,58c-.77-.17-1.55-.31-2.31-.52a7.55,7.55,0,0,1-6-7c-.1-1,0-2,0-3.15h7.92c0,.93,0,1.83,0,2.73,0,1.28.74,2.06,1.78,2s1.69-.8,1.7-2.1c0-2.59,0-5.18,0-7.78l-.38-.25a3.81,3.81,0,0,1-.47.81,6,6,0,0,1-6.42,1.83c-2.47-.79-3.68-2.69-4.07-5.17a12.77,12.77,0,0,1-.15-2.05q0-10.83,0-21.65a10.15,10.15,0,0,1,.27-2.58A5.52,5.52,0,0,1,200,8.92a6,6,0,0,1,6.07,2c.24.26.45.55.84,1,.09-1,.16-1.82.24-2.7H215v1.17q0,19.14,0,38.29c0,5.48-2.42,8.26-7.88,9.08a3.35,3.35,0,0,0-.61.2Z"/><path class="cls-3" d="M106.09,47.52h-8V9.91H106c0,.79.1,1.56.17,2.63,1.52-2,3.34-3.23,5.75-3.15a5.85,5.85,0,0,1,5.24,3.54,1.57,1.57,0,0,0,.33-.25c2-2.84,4.62-3.9,7.45-3,2.61.8,4.18,3.22,4.19,6.6,0,6.81,0,13.61,0,20.42V47.49h-8V19.08c0-2.11-.47-2.9-1.72-2.92s-1.77.78-1.77,3V47.49c-.43,0-.81.1-1.19.1-1.85,0-3.7-.05-5.54,0-1,0-1.36-.26-1.35-1.31,0-7.91,0-15.83,0-23.74,0-1.4,0-2.79,0-4.19s-.65-2.23-1.78-2.21-1.67.77-1.67,2.19q0,13.91,0,27.82Z"/><path class="cls-3" d="M0,31.05H9.1v5.79c0,1.09,0,2.18,0,3.26a1.71,1.71,0,0,0,1.78,1.79,1.67,1.67,0,0,0,1.66-1.78c0-1.92,0-3.85,0-5.77A7.59,7.59,0,0,0,10,28.89c-1.89-1.8-3.74-3.65-5.68-5.39A12,12,0,0,1,.1,13.55c.07-1.48,0-3,0-4.46C.13,4.36,2.39,1.52,7.05.46a15.34,15.34,0,0,1,9.49.63,7.4,7.4,0,0,1,5,7.12c.05,2.53,0,5.06,0,7.7-.43,0-.78.08-1.12.08-2.21,0-4.43,0-6.64,0-.87,0-1.21-.2-1.18-1.14.08-1.88,0-3.77,0-5.66,0-1.39-.65-2.16-1.74-2.16S9.13,7.83,9.1,9.21a1.61,1.61,0,0,1,0,.22,10.84,10.84,0,0,0,4.33,10.5,57.81,57.81,0,0,1,4.83,4.7,11.71,11.71,0,0,1,3.45,8.64c0,2.07,0,4.14,0,6.2,0,4.87-2.08,7.7-6.81,8.9A14.44,14.44,0,0,1,3.56,47,6.38,6.38,0,0,1,.45,42.86C-.39,39,.24,35,0,31.05Z"/><path class="cls-3" d="M142.52,29.08v-8.8c0-.76,0-1.53,0-2.28a1.63,1.63,0,0,0-1.74-1.57A1.65,1.65,0,0,0,139.06,18a3.87,3.87,0,0,0,0,.76V39.36a5.22,5.22,0,0,0,.1,1.19,1.71,1.71,0,0,0,3.28,0,4.63,4.63,0,0,0,.11-1.18Zm-3.4,16.45c-.06.31-.1.44-.11.57-.12,2.11-.12,2.11-2.28,2.11h-5.67V.28H139V12.82l.84-.91c1.73-1.93,3.78-2.95,6.39-2.08s3.93,2.92,4.26,5.61a11.12,11.12,0,0,1,.07,1.52c0,7.94,0,15.88,0,23.81a12.1,12.1,0,0,1-.73,4.13,5.77,5.77,0,0,1-10.33,1A5,5,0,0,0,139.12,45.53Z"/><path class="cls-3" d="M64.65,48.2c-2.56,0-5,0-7.4,0-.21,0-.5-.39-.59-.65a2.85,2.85,0,0,1,0-1q0-13.54,0-27.08a5.93,5.93,0,0,0-.11-1.4,1.56,1.56,0,0,0-1.75-1.29,1.61,1.61,0,0,0-1.59,1.51,7.85,7.85,0,0,0,0,1.19V48.13H45.2V.27c.34,0,.69-.08,1-.08,1.92,0,3.85,0,5.76,0,.89,0,1.19.22,1.18,1.15-.06,3.34,0,6.67,0,10v1.36c.42-.46.66-.73.92-1a6,6,0,0,1,6.4-1.87c2.5.77,3.68,2.66,4,5.15a14.43,14.43,0,0,1,.15,1.73V48.2Z"/><path class="cls-3" d="M96.09,10v37.4H92.76c-1.12,0-2.25,0-3.37,0-.8,0-1.14-.25-1.09-1,0-.48,0-1,0-1.44L88,44.92l-.6.66A5.86,5.86,0,0,1,81,47.66a6,6,0,0,1-4.3-5.13,12.23,12.23,0,0,1-.1-1.91c0-9.77,0-19.54,0-29.3,0-1.05.23-1.44,1.37-1.39,2.17.09,4.34,0,6.67,0V38.34c0,.35,0,.71,0,1.06a1.71,1.71,0,1,0,3.42,0c0-.31,0-.63,0-.95V10Z"/><path class="cls-3" d="M164,24.33c0-2.4,0-4.67,0-6.94a1.67,1.67,0,0,0-1.71-1.8,1.7,1.7,0,0,0-1.7,1.83c0,1.57,0,3.13,0,4.69v2.22Zm.06,8.4H172c0,.37.08.74.08,1.11q0,2.5,0,5c0,4.84-2.43,7.81-7.27,8.81a11.85,11.85,0,0,1-7.73-.89,7.34,7.34,0,0,1-4.47-6.57c-.1-2,0-4.05-.06-6.07,0-5.19,0-10.37,0-15.56,0-5,2.47-7.92,7.45-8.84a12.12,12.12,0,0,1,7.23.78A7.58,7.58,0,0,1,172,17.64c.08,3.94,0,7.89,0,11.83a2.79,2.79,0,0,1-.12.59H160.68a4.32,4.32,0,0,0-.13.67V39.9a1.71,1.71,0,0,0,1.15,1.85A1.65,1.65,0,0,0,164,40.1c.05-2.06,0-4.12,0-6.18C164,33.53,164,33.15,164,32.73Z"/><path class="cls-3" d="M228.23,24.33c0-2.44,0-4.74,0-7a1.63,1.63,0,0,0-1.71-1.69,1.65,1.65,0,0,0-1.68,1.73c-.05,1.67,0,3.34,0,5v2Zm7.94,5.7H224.93a5.54,5.54,0,0,0-.12.78q0,4.48,0,9a4.58,4.58,0,0,0,0,.53,1.66,1.66,0,0,0,1.73,1.57,1.57,1.57,0,0,0,1.65-1.62c.06-2.09,0-4.19,0-6.28V32.74h8.14c-.13,3.06.06,6.12-.49,9-.68,3.54-3.53,5.23-7,5.89a11.17,11.17,0,0,1-9.35-2,6.71,6.71,0,0,1-2.73-5.24c-.1-3.73-.07-7.46-.09-11.19,0-3.44.12-6.89,0-10.33-.29-7.1,5.11-9.44,9.92-9.39a11,11,0,0,1,5.8,1.52,7.19,7.19,0,0,1,3.74,6.24c.09,4.05,0,8.1,0,12.14A4.62,4.62,0,0,1,236.17,30Z"/><path class="cls-3" d="M35.29,32.74h8.18c-.18,3.17-.19,6.29-.59,9.35a5.9,5.9,0,0,1-3.34,4.27,11.88,11.88,0,0,1-11.73.12,7,7,0,0,1-3.93-6.33q-.12-11.4,0-22.8a7.17,7.17,0,0,1,4.74-6.82,11.93,11.93,0,0,1,10.58.36,7.15,7.15,0,0,1,4,6.28c.1,2,0,4,.07,6,0,.68-.19.94-.92.93q-3.09-.06-6.2,0c-.73,0-.93-.26-.92-.93,0-2,0-3.91,0-5.86a1.63,1.63,0,0,0-1.73-1.68,1.67,1.67,0,0,0-1.67,1.73c0,.32,0,.64,0,1V39.8c0,1.32.63,2,1.7,2s1.71-.7,1.73-2c0-2,0-3.91,0-5.86Z"/><path class="cls-3" d="M174.06,9.66h7.73c.09.8.18,1.62.3,2.68l.94-1c2.78-2.88,6.74-2.91,9-.07a6.31,6.31,0,0,1,1.42,3.92c0,4.78,0,9.57,0,14.35a2.62,2.62,0,0,1-.09.46H185.5V26.91c0-2.79,0-5.58,0-8.37,0-1.71-.51-2.47-1.71-2.5S182,16.82,182,18.6V47.77h-8Z"/><path class="cls-3" d="M238.43,9.63h7.7c.1.85.2,1.66.32,2.71.39-.41.63-.69.89-.95,1.78-1.78,3.85-2.76,6.39-2a5.6,5.6,0,0,1,4,5.26c.2,2.67.18,5.35.21,8,0,2.1,0,4.2,0,6.31,0,.51,0,1-.75,1-2.39,0-4.77,0-7.28,0,0-.48-.1-.9-.1-1.31,0-3.55,0-7.1,0-10.66,0-.91-.22-1.65-1.19-1.95a1.65,1.65,0,0,0-2.24,1.39,9.41,9.41,0,0,0,0,1.3V47.74h-8Z"/><path class="cls-3" d="M66.67.27h7.89c0,.4.06.78.06,1.17q0,22.77,0,45.54c0,1-.33,1.28-1.29,1.25-2.2,0-4.4,0-6.68,0Z"/></g></g></g></svg>