<svg xmlns="http://www.w3.org/2000/svg" viewBox="0 0 19.06 25"><defs><style>.cls-1{fill:#65d0ff;}</style></defs><title>Menu-ricardo-assets</title><g id="Layer_2" data-name="Layer 2"><g id="Layer_1-2" data-name="Layer 1"><path class="cls-1" d="M18.72,24.29c-.62-1.3-.89-1.88-1.14-2.51l-.25-.6c-.9-2.16-1.2-2.89-1.53-3.58a5.17,5.17,0,0,0-1.69-2.38,5.88,5.88,0,0,0,1.32-.89,4.36,4.36,0,0,0,.64-.78l.49-.77h-13L.27,9.65V20.93a21.81,21.81,0,0,1-.19,3.51L0,25H6.29l-.07-.56A24.83,24.83,0,0,1,6,20.88V17.46H8A2.09,2.09,0,0,1,9.51,18c.49.44.74.86,1.51,3a22.75,22.75,0,0,1,1.16,3.65l.09.39h6.79Z"/><polygon class="cls-1" points="16.33 4.74 0.33 4.74 0.33 1.77 12.38 1.77 12.38 0 12.49 0.13 14.83 2.96 16.33 4.74"/><polygon class="cls-1" points="16.33 6.77 16.33 9.74 4.28 9.74 4.28 11.51 0.77 7.27 0.34 6.77 16.33 6.77"/></g></g></svg>