<svg xmlns="http://www.w3.org/2000/svg" viewBox="0 0 24.79 25"><defs><style>.cls-1{fill:#6aa2e0;}</style></defs><title>Menu-import-assets_1</title><g id="Layer_2" data-name="Layer 2"><g id="Layer_1-2" data-name="Layer 1"><path class="cls-1" d="M7.1,21.48l.14-.19,0,0c-.18-.18-.37-.38-.52-.56a11.67,11.67,0,0,1-2-3.3c0-.11-.08-.21-.12-.32a10.15,10.15,0,0,1-.38-1.22,2.33,2.33,0,0,1-.07-.25,13.84,13.84,0,0,1-.41-2.47v0c0-.26,0-.52,0-.78v-.13c0-.23,0-.45,0-.68A12.76,12.76,0,0,1,4,8.63a11.09,11.09,0,0,1,.41-1.39v0s0,0,0-.06a14.53,14.53,0,0,1,.62-1.46,14.32,14.32,0,0,1,1.8-2.64,1.48,1.48,0,0,0-.29.12,8.7,8.7,0,0,0-.9.59A7.87,7.87,0,0,0,4,5.36a.9.9,0,0,0-.15.18c-.14.2-.28.4-.41.61a.77.77,0,0,0-.14.21c-.12.21-.25.43-.35.65a.59.59,0,0,0-.06.14,10.12,10.12,0,0,0-.63,1.48,11.83,11.83,0,0,0-.61,2.88c0,.22,0,.45,0,.68s0,.61,0,.9v0a12.83,12.83,0,0,0,.14,1.39.17.17,0,0,0,0,.07,15.77,15.77,0,0,0,.55,2.47c.08.23.16.46.25.68s.21.52.32.79c0,.07,0,.12.07.18a1.58,1.58,0,0,1-.12-.15A10.81,10.81,0,0,1,.18,13.09a8.86,8.86,0,0,1-.13-.9c0-.28,0-.55,0-.83v0A10.94,10.94,0,0,1,1.33,6c.13-.23.26-.45.41-.67a5.23,5.23,0,0,1,.55-.78.05.05,0,0,1,0,0h0l.07-.09A3.26,3.26,0,0,1,2.68,4a11.47,11.47,0,0,1,8.09-4h.48V0s0,0,0,0l-.09.07a8.28,8.28,0,0,0-2,1.81A8,8,0,0,0,7.88,4.35l-.09.27a10.15,10.15,0,0,0-.38,1.82c0,.3-.08.62-.1.93a1.55,1.55,0,0,0,0,.22c0,.38,0,.76,0,1.14a11.6,11.6,0,0,0,.5,2.8c.07.21.15.42.23.62a10.58,10.58,0,0,0,.4,1h0a15,15,0,0,0,.82,1.53,8.86,8.86,0,0,0,.68.93,7.76,7.76,0,0,0,1,.94l.33-.42,1.12-1.41.54-.67.17-.21,0,0,.67,1.8.44,1.13.14.37.24.64.58,1.54.61,1.6.28.75.12.31.35.86h0l.19.5v0L17.36,25l-12.3-.91L6,22.92l.21-.27.35-.46Z"/><path class="cls-1" d="M19.6,11.57,19,7.44,21.75,7a11.09,11.09,0,0,1,1.45,4.59Zm2.15,6.18L19,17.29c.11-.68.25-1.36.36-2s.14-1.38.22-2.07H23.2A11,11,0,0,1,21.75,17.75ZM18.49,5.91A14.33,14.33,0,0,0,16.81,2.6a9.59,9.59,0,0,1,3.94,2.95Zm-5.25,5.66V7.82l4.14-.22a19,19,0,0,1,.58,4Zm0-9.91c.31.17.61.28.88.45a6.18,6.18,0,0,1,2,2.38c.26.47.46,1,.72,1.5a24.7,24.7,0,0,1-3.64.22Zm10.35,5.4A12.33,12.33,0,0,0,12.41,0h0a5.16,5.16,0,0,0-.69,0,8.4,8.4,0,0,0-1.67,1.59A8.13,8.13,0,0,0,8.78,4.05l-.09.27c0,.12-.06.24-.09.36a5.7,5.7,0,0,1,3-3V6.24L8.32,6s0,.07,0,.11,0,.34-.05.51,0,.3,0,.44a5.24,5.24,0,0,0,0,.56l3.41.17v3.74H8.88c.14.41.3.82.49,1.24a3.82,3.82,0,0,0,.17.36h2.08V14.7l.73-.93.54-.67.17-.2,0,0,.14.37v-.06H18a19.41,19.41,0,0,1-.57,3.93L15.32,17l.17.43.45,1.21.86.05a3.14,3.14,0,0,1-.4,1.16l.29.72.28.76.12.31,0,.06c.22-.37.44-.73.63-1.1.28-.56.5-1.12.77-1.73l2.23.36A11,11,0,0,1,17.24,22l.19.48h0l.18.5v0l.17.44A12.35,12.35,0,0,0,23.59,7.06Z"/></g></g></svg>