<svg xmlns="http://www.w3.org/2000/svg" viewBox="0 0 25 23.05"><defs><style>.cls-1{fill:#6aa2e0;}</style></defs><title>Menu-export-inactive</title><g id="Layer_2" data-name="Layer 2"><g id="Layer_1-2" data-name="Layer 1"><path class="cls-1" d="M20.27,6.78H17.38a.46.46,0,0,1-.31-.18,19.45,19.45,0,0,0-3.28-4.8l-.11-.13a10,10,0,0,1,6.83,5.08Zm-7.91,0V2.35a18.24,18.24,0,0,1,3.2,4.4Zm-1.46,0H7.68A18.42,18.42,0,0,1,10.9,2.34Zm-4.7-.2c0,.09-.16.22-.25.22-1,0-2.1,0-3.23,0A10.06,10.06,0,0,1,9.61,1.62c-.3.35-.57.64-.84,1A18.37,18.37,0,0,0,6.2,6.55ZM15.63.73A11.49,11.49,0,0,0,.44,9c0,.22-.09.45-.13.68a7.44,7.44,0,0,0,1,1.54.05.05,0,0,0,0,0l.18.2a9.6,9.6,0,0,1,.5-3.05.28.28,0,0,1,.22-.18c1.08,0,2.16,0,3.29,0a11.36,11.36,0,0,0-.4,5.48.52.52,0,0,0,.16.06,6.54,6.54,0,0,0,.86.26l.2.06.29.06A9.75,9.75,0,0,1,7,8.38c0-.08.14-.19.21-.19,1.23,0,2.44,0,3.69,0v6a7.67,7.67,0,0,0,.93-.19h0a4.77,4.77,0,0,0,.51-.13V8.19c1.23,0,2.46,0,3.69,0a.27.27,0,0,1,.19.17c.1.27.18.57.26.85l.2,0,.66-.11L17.88,9h0c-.06-.25-.12-.5-.2-.76l.18,0c1,0,2,0,3,0,.2,0,.27.06.32.25l.05,0h0l.31-.05.87-.15h0l.08,0A11.37,11.37,0,0,0,15.63.73Z"/><path class="cls-1" d="M25,9.05,21.82,20.51l-.94-1.08-.21-.24-.27-.32-.1-.11-.57-.66-.16-.17h0l-.32.2s0,0,0,0-.21.14-.3.2a11.34,11.34,0,0,1-3.5,1.28,1.13,1.13,0,0,1-.18,0l-.15,0a10,10,0,0,1-1.21.14h-.65c-.29,0-.59,0-.88,0a10.73,10.73,0,0,1-1.14-.08h0l-.27,0-.47-.08-.12,0c-.22,0-.4-.07-.6-.11h0a11.78,11.78,0,0,1-2.36-.74L7,18.61A11.45,11.45,0,0,1,5.75,18h0s0,0-.06,0A11.68,11.68,0,0,1,4.41,17a12,12,0,0,1-.92-.84,12.27,12.27,0,0,1-1.23-1.36,1.35,1.35,0,0,0,.05.29,8,8,0,0,0,.39,1,.39.39,0,0,0,.06.11.23.23,0,0,0,0,.1A6.66,6.66,0,0,0,3.9,18a1.3,1.3,0,0,0,.15.18c.16.17.33.34.5.5a.55.55,0,0,0,.17.17A2.75,2.75,0,0,0,5,19a2,2,0,0,0,.28.23l.12.1.63.46c.21.14.44.28.66.4a11.79,11.79,0,0,0,2.2,1l.41.13c.21,0,.41.11.63.15l.86.18h0c.44.06.89.11,1.33.13h.08a13.29,13.29,0,0,0,2.44-.06c.23,0,.46-.06.69-.1s.53-.11.8-.15l.19,0a.85.85,0,0,1-.17.08A10.2,10.2,0,0,1,11.82,23a8.26,8.26,0,0,1-1.31.06A5.26,5.26,0,0,1,9.62,23a5.31,5.31,0,0,1-.8-.11h0A10.7,10.7,0,0,1,4,20.62c-.19-.17-.37-.33-.54-.51a5.18,5.18,0,0,1-.65-.67l0,0h0a.61.61,0,0,0-.07-.1A3,3,0,0,1,2.37,19,11.07,11.07,0,0,1,.11,10.57l.09-.45h0s0,0,0,0l0,.1A8.11,8.11,0,0,0,1.6,12.43l0,0a7.13,7.13,0,0,0,2.05,1.65,2.29,2.29,0,0,0,.24.15,12,12,0,0,0,1.22.55l.44.17a8.47,8.47,0,0,0,.86.25l.2.06a8.84,8.84,0,0,0,1.08.2,11,11,0,0,0,2.75.06l.64-.1c.33,0,.66-.11,1-.19h0c.51-.13,1-.28,1.51-.45l.1,0a7.78,7.78,0,0,0,2.08-1.2l-.34-.39-1.12-1.34-.55-.63L13.63,11l0,0,1.84-.3,1.15-.2.17,0,.2,0,.66-.11.52-.08,1-.17,1.63-.28.73-.12h0l.31-.05.87-.16h0l.14,0,.37-.06h0Z"/></g></g></svg>