<svg xmlns="http://www.w3.org/2000/svg" viewBox="0 0 21.65 25"><defs><style>.cls-1{fill:#6aa2e0;}</style></defs><title>Menu-master-data-management-inactive</title><g id="Layer_2" data-name="Layer 2"><g id="Layer_1-2" data-name="Layer 1"><path class="cls-1" d="M6.53,9.56,11,12.13l4.48-2.61,0-5.19L11,1.76,6.5,4.38ZM11,13.9,5,10.45,5,3.5,11,0l6,3.45,0,6.94Z"/><polygon class="cls-1" points="11.07 7.24 5.41 4.63 6.05 3.25 11.06 5.56 15.91 3.2 16.58 4.58 11.07 7.24"/><path class="cls-1" d="M11,12.77c0-2.2,0-4.41,0-6.61"/><rect class="cls-1" x="7.74" y="8.7" width="6.61" height="1.53" transform="translate(1.53 20.47) rotate(-89.72)"/><path class="cls-1" d="M1.52,23.47h3.2V20.28H1.52ZM6.24,25H0V18.75H6.24Z"/><path class="cls-1" d="M9.49,23.47h3.2V20.28H9.49ZM14.21,25H8V18.75h6.24Z"/><path class="cls-1" d="M16.93,23.47h3.19V20.28H16.93ZM21.65,25H15.4V18.75h6.25Z"/><rect class="cls-1" x="2.33" y="21.08" width="1.59" height="1.59"/><rect class="cls-1" x="10.29" y="21.08" width="1.59" height="1.59"/><rect class="cls-1" x="17.73" y="21.08" width="1.59" height="1.59"/><rect class="cls-1" x="2.36" y="14.35" width="1.53" height="4.81"/><rect class="cls-1" x="10.33" y="12.08" width="1.53" height="7.11"/><rect class="cls-1" x="17.76" y="14.35" width="1.53" height="4.81"/><rect class="cls-1" x="2.36" y="13.75" width="16.93" height="1.53"/></g></g></svg>