<svg xmlns="http://www.w3.org/2000/svg" viewBox="0 0 7.53 12.87"><defs><style>.cls-1{fill:#65d0ff;fill-rule:evenodd;}.cls-2{fill:none;stroke:#65d0ff;}</style></defs><title>Menu-active-arrow</title><g id="Layer_2" data-name="Layer 2"><g id="Layer_1-2" data-name="Layer 1"><path class="cls-1" d="M6.86,6,1.52.68a.58.58,0,0,0-.84,0,.58.58,0,0,0,0,.84L5.59,6.43.68,11.35a.58.58,0,0,0,0,.84.58.58,0,0,0,.84,0L6.86,6.86A.61.61,0,0,0,6.86,6Z"/><path class="cls-2" d="M6.86,6,1.52.68a.58.58,0,0,0-.84,0,.58.58,0,0,0,0,.84L5.59,6.43.68,11.35a.58.58,0,0,0,0,.84.58.58,0,0,0,.84,0L6.86,6.86A.61.61,0,0,0,6.86,6Z"/></g></g></svg>