<svg xmlns="http://www.w3.org/2000/svg" viewBox="0 0 21.31 24.97"><defs><style>.cls-1{fill:#65d0ff;}</style></defs><title>Menu-inventory-assets</title><g id="Layer_2" data-name="Layer 2"><g id="Layer_1-2" data-name="Layer 1"><path class="cls-1" d="M5.91,3.29V5.76H8.12V3.29Zm3.63,0V5.76h8.77V3.29ZM5.91,8.54V11H8.12V8.54Zm3.63,0V11h8.77V8.54ZM5.91,13.8v2.47H8.12V13.8Zm3.63,0v2.47h8.77V13.8ZM5.91,19.05v2.47H8.12V19.05Zm3.63,0v2.47h8.77V19.05ZM21.31,25H3V0H21.31V25Z"/><rect class="cls-1" y="2.55" width="3.14" height="1.06"/><rect class="cls-1" y="5.88" width="3.14" height="1.06"/><rect class="cls-1" y="9.11" width="3.14" height="1.06"/><rect class="cls-1" y="12.33" width="3.14" height="1.06"/><rect class="cls-1" y="15.55" width="3.14" height="1.06"/><rect class="cls-1" y="18.79" width="3.14" height="1.06"/><rect class="cls-1" y="22.04" width="3.14" height="1.06"/></g></g></svg>