<svg xmlns="http://www.w3.org/2000/svg" viewBox="0 0 24.19 25"><defs><style>.cls-1{fill:#65d0ff;}</style></defs><title>Menu-import-assets</title><g id="Layer_2" data-name="Layer 2"><g id="Layer_1-2" data-name="Layer 1"><path class="cls-1" d="M11.24,7.83v4.32H8.91l-.13-.34a5.33,5.33,0,0,1-.23-.63A11.73,11.73,0,0,1,8,7.51,21.82,21.82,0,0,0,11.24,7.83Z"/><path class="cls-1" d="M12.34,12.16c0-1.46,0-2.87,0-4.32A21.64,21.64,0,0,0,17.94,7a20.69,20.69,0,0,1,.66,5.19Z"/><path class="cls-1" d="M22,5.24a12.35,12.35,0,0,1,2.22,7H19.75c-.07-1-.11-1.88-.23-2.81S19.2,7.59,19,6.71Z"/><path class="cls-1" d="M11.25.21c0,2.29,0,4.46,0,6.67a18.28,18.28,0,0,1-3.15-.32,3.75,3.75,0,0,1,.05-.47,11.73,11.73,0,0,1,.4-1.83A8.05,8.05,0,0,1,11.25.21Z"/><path class="cls-1" d="M12.35,6.89c0-2.28,0-4.53,0-6.81a4.66,4.66,0,0,1,2.53,1.33,11.27,11.27,0,0,1,2.74,4.68A20,20,0,0,1,12.35,6.89Z"/><path class="cls-1" d="M17.67,18.37c-.38.85-.71,1.68-1.15,2.46,0,.05-.05.11-.09.17l-.19-.49-1-2.69A18.47,18.47,0,0,1,17.67,18.37Z"/><path class="cls-1" d="M11.22,13.14v2.69A8.06,8.06,0,0,1,10,14.33c-.23-.38-.44-.78-.65-1.19Z"/><path class="cls-1" d="M18.66,13.15,18,17.48a20.84,20.84,0,0,0-3.19-.68l-.06-.18-.39-1-.93-2.47Z"/><path class="cls-1" d="M19.81,13.13h4.34a12.3,12.3,0,0,1-2.21,6.1c-.57-.31-1.12-.61-1.68-.89-.34-.18-.71-.3-1.05-.48a.34.34,0,0,1-.18-.25C19.28,16.12,19.54,14.65,19.81,13.13Z"/><path class="cls-1" d="M15.79.73a12.19,12.19,0,0,1,5.53,3.78L18.7,5.81A13.66,13.66,0,0,0,15.79.73Z"/><path class="cls-1" d="M18.68,18.64l2.61,1.3a12.18,12.18,0,0,1-5.54,3.77A13.57,13.57,0,0,0,18.68,18.64Z"/><path class="cls-1" d="M6.52,22.19l.71-.91,0,0c-.18-.18-.37-.38-.52-.56a11.59,11.59,0,0,1-2-3.3,9.23,9.23,0,0,1-.5-1.54,13.26,13.26,0,0,1-.48-2.72v0l0-.78v-.13c0-.23,0-.45,0-.68A13.08,13.08,0,0,1,4.4,7.23s0,0,0,0a12.7,12.7,0,0,1,.66-1.52A13.63,13.63,0,0,1,6.86,3a1.78,1.78,0,0,0-.29.12,8.57,8.57,0,0,0-.89.59A7.63,7.63,0,0,0,4,5.35a.9.9,0,0,0-.16.18l-.41.61a1.53,1.53,0,0,0-.14.21c-.11.21-.24.43-.34.65a12.15,12.15,0,0,0-1.31,4.5c0,.22,0,.45,0,.68a6.91,6.91,0,0,0,0,.91v0a15.37,15.37,0,0,0,.7,3.92c.08.24.15.47.24.68s.22.53.32.8l.08.18-.13-.16A10.76,10.76,0,0,1,.18,13.09a6.88,6.88,0,0,1-.13-.91A10.9,10.9,0,0,1,1.33,6c.13-.23.26-.45.41-.67a5.31,5.31,0,0,1,.55-.78.08.08,0,0,1,0,0h0l.08-.09L2.67,4a11.51,11.51,0,0,1,8.1-4h.46L11.12.1A7.93,7.93,0,0,0,7.79,4.61a11.49,11.49,0,0,0-.4,1.83c0,.3-.07.62-.09.93a1.62,1.62,0,0,0,0,.22,11.71,11.71,0,0,0,.51,3.94c.07.2.14.42.23.62a10.58,10.58,0,0,0,.4,1h0a15,15,0,0,0,.82,1.53,7.93,7.93,0,0,0,1.64,1.87l.33-.42,1.12-1.41.71-.88,0,0,1.11,2.93.38,1,1.47,3.89.47,1.17h0l.2.54L17.35,25l-12.3-.91L6,22.91Z"/></g></g></svg>