<svg xmlns="http://www.w3.org/2000/svg" viewBox="0 0 19.74 25.24"><defs><style>.cls-1{fill:none;stroke:#6aa2e0;stroke-width:1.5px;}.cls-2{fill:#6aa2e0;}</style></defs><title>Menu-ricardo-inactive</title><g id="Layer_2" data-name="Layer 2"><g id="Layer_1-2" data-name="Layer 1"><path class="cls-1" d="M18.55,24.49H13a22.34,22.34,0,0,0-1.18-3.73c-.76-2.08-1-2.63-1.65-3.16A2.59,2.59,0,0,0,8.27,17H5.82v3.93A25.71,25.71,0,0,0,6,24.49H.86a21.42,21.42,0,0,0,.2-3.59V10.81l2.59,2.47H15.94a4.1,4.1,0,0,1-.57.69,5.43,5.43,0,0,1-2.28,1.19c1.23.38,1.78.93,2.54,2.63.36.76.7,1.58,1.77,4.17C17.67,22.62,18,23.23,18.55,24.49Z"/><polygon class="cls-2" points="16.62 4.74 0.63 4.74 0.63 1.77 12.68 1.77 12.68 0 12.79 0.13 15.13 2.96 16.62 4.74"/><polygon class="cls-2" points="16.62 6.77 16.62 9.74 4.58 9.74 4.58 11.51 1.06 7.27 0.64 6.77 16.62 6.77"/></g></g></svg>