<svg xmlns="http://www.w3.org/2000/svg" viewBox="0 0 22.19 25"><defs><style>.cls-1{fill:#65d0ff;}</style></defs><title>Menu-Masterdatamanagement-assets</title><g id="Layer_2" data-name="Layer 2"><g id="Layer_1-2" data-name="Layer 1"><path class="cls-1" d="M1.56,23.43H4.84V20.16H1.56ZM6.4,25H0V18.6H6.4Z"/><path class="cls-1" d="M9.73,23.43H13V20.16H9.73ZM14.57,25H8.17V18.6h6.4Z"/><path class="cls-1" d="M17.36,23.43h3.27V20.16H17.36ZM22.19,25h-6.4V18.6h6.4Z"/><rect class="cls-1" y="18.6" width="6.4" height="6.4"/><rect class="cls-1" x="8.17" y="18.6" width="6.4" height="6.4"/><rect class="cls-1" x="15.8" y="18.6" width="6.4" height="6.4"/><rect class="cls-1" x="2.42" y="14.08" width="1.56" height="4.94"/><rect class="cls-1" x="10.59" y="13.69" width="1.56" height="5.35"/><rect class="cls-1" x="18.21" y="14.08" width="1.56" height="4.94"/><rect class="cls-1" x="2.42" y="13.47" width="17.36" height="1.56"/><polygon class="cls-1" points="11.27 0 16.89 2.92 11.27 5.75 5.67 2.88 11.27 0"/><path class="cls-1" d="M11.62,6.23v6.14l5.25-2.54q0-3.12,0-6.25Q14.27,4.91,11.62,6.23Z"/><path class="cls-1" d="M5.67,3.58l4.94,2.5.35.18v6.11L5.74,9.66S5.67,3.58,5.67,3.58Z"/></g></g></svg>