<svg xmlns="http://www.w3.org/2000/svg" viewBox="0 0 25 22.84"><defs><style>.cls-1{fill:#65d0ff;}</style></defs><title>Menu-export-assets</title><g id="Layer_2" data-name="Layer 2"><g id="Layer_1-2" data-name="Layer 1"><path class="cls-1" d="M11.25,7.44v4.1h-6A20,20,0,0,1,5.88,6.6,21.39,21.39,0,0,0,11.25,7.44Z"/><path class="cls-1" d="M18.12,9.5l-1.44.23L16,9.84l-.39.06-1.15.21-1.87.3,0,.05.17.2.55.64.2.24H12.3V7.44a20.77,20.77,0,0,0,5.31-.82A17.36,17.36,0,0,1,18.12,9.5Z"/><path class="cls-1" d="M23.14,8.63l-.67.11,0,0-.51.08h0L21,9l-.32.05-.78.12-.75.14c0-.14,0-.26-.05-.39-.12-.88-.31-1.72-.46-2.56L21.44,5A11.47,11.47,0,0,1,23.14,8.63Z"/><path class="cls-1" d="M4.88,6.34a21.44,21.44,0,0,0-.7,5.22h-4L0,11.35A11.61,11.61,0,0,1,2.12,5Z"/><path class="cls-1" d="M.16,11.56H0a1.41,1.41,0,0,1,0-.21Z"/><path class="cls-1" d="M11.26,0c0,2.24,0,4.37,0,6.53a19.13,19.13,0,0,1-5-.78,11.42,11.42,0,0,1,1.63-3.3A5.76,5.76,0,0,1,10,.49C10.36.3,10.79.18,11.26,0Z"/><path class="cls-1" d="M17.33,5.78a19.44,19.44,0,0,1-5,.76V.07a4.6,4.6,0,0,1,2.41,1.27A10.87,10.87,0,0,1,17.33,5.78Z"/><path class="cls-1" d="M11.24,12.47v2.24c-.2,0-.4.07-.59.1a11.24,11.24,0,0,1-2.78-.06c-.37-.05-.73-.13-1.1-.21a.91.91,0,0,1-.21,0,8.75,8.75,0,0,1-.87-.27,2.67,2.67,0,0,1-.26-.09l-.24-1.66Z"/><path class="cls-1" d="M4.31,13.64a2.1,2.1,0,0,1-.3-.15,1.19,1.19,0,0,1-.25-.13,7.57,7.57,0,0,1-1.31-.93H4.13Z"/><path class="cls-1" d="M20.81,4.29,18.34,5.52A13.11,13.11,0,0,0,15.57.69,11.47,11.47,0,0,1,20.81,4.29Z"/><path class="cls-1" d="M8,.67A24.45,24.45,0,0,0,6.33,2.92a26.64,26.64,0,0,0-1.2,2.51L2.75,4.26A11.81,11.81,0,0,1,8,.67Z"/><path class="cls-1" d="M25,8.83,21.82,20.29l-.94-1.08L20.67,19l-.37-.43-.58-.66-.16-.17h0c-.2.13-.43.28-.64.4a11.19,11.19,0,0,1-3.49,1.28,2,2,0,0,1-.33.05,8.27,8.27,0,0,1-1.22.13l-.25,0a13.06,13.06,0,0,1-2.42-.08h0l-.74-.11-.12,0-.64-.11A13,13,0,0,1,7,18.38a10.48,10.48,0,0,1-1.24-.65h0l-.06,0a11.78,11.78,0,0,1-1.26-.87,12.37,12.37,0,0,1-2.15-2.19,1,1,0,0,0,.05.29,8,8,0,0,0,.39,1,7.58,7.58,0,0,0,1.21,1.87.83.83,0,0,0,.13.18l.5.51.17.17c.18.14.37.31.55.44a1.06,1.06,0,0,0,.12.1A11.93,11.93,0,0,0,6.66,20a12.42,12.42,0,0,0,2.62,1.13c.2.05.42.11.64.15l.85.17h0a10.13,10.13,0,0,0,1.34.13s.06,0,.08,0a15.33,15.33,0,0,0,2.44,0c.22,0,.46-.06.68-.11l.82-.16.18,0-.17.09a10.4,10.4,0,0,1-5.68,1.5,8.3,8.3,0,0,1-.87,0l-.81-.1s0,0,0,0A10.4,10.4,0,0,1,4,20.4a6.89,6.89,0,0,1-.56-.52,5,5,0,0,1-.63-.66.07.07,0,0,1,0,0h0l-.08-.09c-.08-.11-.19-.22-.27-.33A11.07,11.07,0,0,1,.11,10.35L.2,9.9h0s0,0,0,0a.51.51,0,0,0,0,.1,8.39,8.39,0,0,0,1.36,2.21,7.12,7.12,0,0,0,2,1.64l.24.15a14.2,14.2,0,0,0,1.65.72c.29.09.58.19.86.25l.21.06c.36.08.73.15,1.08.2a11,11,0,0,0,2.75.05,4.84,4.84,0,0,0,.63-.1,7,7,0,0,0,1-.19h0a2.72,2.72,0,0,0,.38-.11c.41-.1.83-.24,1.23-.37a9.91,9.91,0,0,0,1-.47,7.3,7.3,0,0,0,1.08-.73L15.45,13l-.29-.34-.84-1L13.78,11l-.16-.19,0-.05,1.83-.3,1.16-.21.37-.06.65-.1,1.56-.26,1.63-.28.77-.12.31-.05.87-.17h0l.5-.08h0Z"/></g></g></svg>