<svg xmlns="http://www.w3.org/2000/svg" viewBox="0 0 25.04 15.03"><defs><style>.cls-1{fill:#65d0ff;}</style></defs><title>Preview-icon</title><g id="Layer_2" data-name="Layer 2"><g id="Layer_1-2" data-name="Layer 1"><path class="cls-1" d="M12.51,12.47a5,5,0,1,0-5-5A5,5,0,0,0,12.51,12.47ZM11.79,0h1.52l.23.06A24.45,24.45,0,0,1,16,.54a16.06,16.06,0,0,1,6.48,4,19.57,19.57,0,0,1,2.61,3s-.05.1-.08.14a19.83,19.83,0,0,1-6.71,5.91,11.85,11.85,0,0,1-7.79,1.28,14.45,14.45,0,0,1-6.25-2.95A21.43,21.43,0,0,1,0,7.54V7.48l.12-.13a20.9,20.9,0,0,1,4-4.16A14.58,14.58,0,0,1,10.09.27C10.65.15,11.23.09,11.79,0Z"/><path class="cls-1" d="M10,7.52A2.49,2.49,0,1,1,12.53,10,2.49,2.49,0,0,1,10,7.52Z"/></g></g></svg>