<svg xmlns="http://www.w3.org/2000/svg" viewBox="0 0 21.61 21.61"><defs><style>.cls-1{fill:#24bcff;}.cls-2{fill:#fff;}</style></defs><title>Process-icon</title><g id="Layer_2" data-name="Layer 2"><g id="Layer_1-2" data-name="Layer 1"><circle class="cls-1" cx="10.81" cy="10.81" r="10.81"/><path class="cls-2" d="M9.88,3l-.59.08a7.17,7.17,0,0,0-4.2,2.13A6.94,6.94,0,0,0,3.15,8.84a7.14,7.14,0,0,0,1.61,6.22,7.14,7.14,0,0,0,4.07,2.42,7.34,7.34,0,0,0,5.62-1.13l.05,0-.06,0-1.14-.77a.14.14,0,0,0-.17,0,5.84,5.84,0,0,1-6.22-.37A5.72,5.72,0,0,1,4.69,12a5.69,5.69,0,0,1,.72-5,5.72,5.72,0,0,1,4.21-2.6,5.72,5.72,0,0,1,4.81,1.64,5.69,5.69,0,0,1,1.72,3.34.62.62,0,0,0,0,.13H14.43l2.48,4.28c.82-1.42,1.64-2.83,2.46-4.27H17.62c-.05-.28-.09-.55-.15-.81a7.19,7.19,0,0,0-2.6-4.19A7.34,7.34,0,0,0,11.05,3l-.3,0Z"/><path class="cls-2" d="M10.38,5.87c-.45,0-.57,0-.6.53-.07,1-.15,2-.23,3a.09.09,0,0,1,0,.05,1.46,1.46,0,0,1-.44.38l-3.25.31a.31.31,0,0,0-.3.3,4.17,4.17,0,0,0,0,.5.33.33,0,0,0,.32.3l3.3.3a.37.37,0,0,1,.14.07,1.4,1.4,0,0,0,1.58.31,1.39,1.39,0,0,0,.81-1.4,1.41,1.41,0,0,0-.44-.9.38.38,0,0,1-.1-.2c-.09-1.09-.17-2.18-.26-3.26a.33.33,0,0,0-.31-.31Z"/></g></g></svg>