<svg xmlns="http://www.w3.org/2000/svg" xmlns:xlink="http://www.w3.org/1999/xlink" viewBox="0 0 44.33 44.33"><defs><style>.cls-1,.cls-4{fill:none;}.cls-2{clip-path:url(#clip-path);}.cls-3{fill:#4ad991;}.cls-4{stroke:#fff;stroke-width:5px;}</style><clipPath id="clip-path" transform="translate(-1.5 -1.5)"><rect class="cls-1" width="47.33" height="47.33"/></clipPath></defs><title>Progress-icon</title><g id="Layer_2" data-name="Layer 2"><g id="Layer_1-2" data-name="Layer 1"><g class="cls-2"><path class="cls-3" d="M23.66,1.5A22.15,22.15,0,0,1,36,5.24a22.19,22.19,0,0,1,8.16,9.94A22.09,22.09,0,0,1,45.4,28a22.05,22.05,0,0,1-3.31,8,22.19,22.19,0,0,1-9.94,8.16A22.09,22.09,0,0,1,19.34,45.4a22.05,22.05,0,0,1-8-3.31,22.19,22.19,0,0,1-8.16-9.94A22.09,22.09,0,0,1,1.93,19.34a22.05,22.05,0,0,1,3.31-8,22.19,22.19,0,0,1,9.94-8.16A22.32,22.32,0,0,1,23.66,1.5Z" transform="translate(-1.5 -1.5)"/></g><g class="cls-2"><polyline class="cls-4" points="14.03 21 20.13 27.02 30.6 16.56"/></g></g></g></svg>