<svg xmlns="http://www.w3.org/2000/svg" viewBox="0 0 19.55 17.41"><defs><style>.cls-1{fill:#1f5695;}.cls-2{fill:none;stroke:#1f5695;}</style></defs><title>Reminder-notification</title><g id="Layer_2" data-name="Layer 2"><g id="Layer_1-2" data-name="Layer 1"><polygon class="cls-1" points="19.55 4.97 9.48 4.97 6.32 4.98 2.42 5.01 0.01 5.02 0.01 4.97 0 1.04 3.95 1.02 3.97 3.94 7.06 3.91 7.05 1 8.26 0.99 10.91 0.98 12.49 0.96 12.51 3.89 15.61 3.86 15.58 0.95 19.52 0.99 19.55 4.97"/><rect class="cls-1" x="13.03" y="0.04" width="2.06" height="4.41"/><rect class="cls-1" x="4.48" width="2.06" height="4.41"/><rect class="cls-1" x="10.41" y="7.29" width="2.14" height="2.14"/><rect class="cls-1" x="13.67" y="7.29" width="2.14" height="2.14"/><rect class="cls-1" x="10.41" y="10.17" width="2.14" height="2.14"/><rect class="cls-1" x="13.67" y="10.17" width="2.14" height="2.14"/><rect class="cls-1" x="3.89" y="13.05" width="2.14" height="2.14"/><rect class="cls-1" x="7.15" y="13.05" width="2.14" height="2.14"/><rect class="cls-1" x="10.41" y="13.05" width="2.14" height="2.14"/><rect class="cls-1" x="13.67" y="13.05" width="2.14" height="2.14"/><rect class="cls-1" x="3.89" y="7.29" width="4.98" height="4.98"/><rect class="cls-2" x="0.52" y="4.27" width="18.51" height="12.65"/></g></g></svg>