<svg xmlns="http://www.w3.org/2000/svg" viewBox="0 0 20 20"><defs><style>.cls-1{fill:#4d565c;}</style></defs><title>Search</title><g id="Layer_2" data-name="Layer 2"><g id="Layer_1-2" data-name="Layer 1"><path class="cls-1" d="M8.88,15A6.28,6.28,0,0,1,2.5,8.82a6.38,6.38,0,0,1,12.75,0A6.27,6.27,0,0,1,8.88,15Zm7-1a8.49,8.49,0,0,0,1.74-5.22A8.77,8.77,0,0,0,8.88,0,8.89,8.89,0,0,0,0,8.82a8.89,8.89,0,0,0,8.88,8.82,8.28,8.28,0,0,0,5.24-1.74l3.76,3.73a1.31,1.31,0,0,0,.87.37,1.33,1.33,0,0,0,.87-.37,1.2,1.2,0,0,0,0-1.74Z"/></g></g></svg>